<svg xmlns="http://www.w3.org/2000/svg" xmlns:xlink="http://www.w3.org/1999/xlink" data-v-70b83f88="" version="1.0" width="100%" height="100%" viewBox="0 0 100.000000 100.000000" preserveAspectRatio="xMidYMid meet" color-interpolation-filters="sRGB" style="margin: auto;">
   <path d="M96.151,50.497c-0.95,3.356-2.851,6.264-5.349,8.186c-1.994,1.537-4.259,2.342-6.486,2.342  c-0.839,0-1.659-0.112-2.469-0.341c-2.945-0.842-5.33-3.181-6.541-6.419c-1.109-2.951-1.183-6.423-0.233-9.78  c0.96-3.356,2.861-6.264,5.349-8.186c2.74-2.111,6.001-2.841,8.955-2.001c2.945,0.842,5.339,3.181,6.551,6.419  C97.027,43.668,97.111,47.14,96.151,50.497z M33.848,42.015c3.504,0,6.849-1.95,9.179-5.353c2.115-3.085,3.28-7.127,3.28-11.381  c0-4.259-1.165-8.3-3.28-11.385c-2.33-3.402-5.675-5.352-9.179-5.352c-3.513,0-6.858,1.95-9.188,5.352  c-2.106,3.085-3.271,7.127-3.271,11.385c0,4.255,1.165,8.296,3.271,11.381C26.99,40.065,30.335,42.015,33.848,42.015z   M64.152,42.015c3.513,0,6.858-1.95,9.188-5.353c2.106-3.085,3.271-7.127,3.271-11.381c0-4.259-1.165-8.3-3.271-11.385  c-2.33-3.402-5.675-5.352-9.188-5.352c-3.504,0-6.849,1.95-9.179,5.352c-2.115,3.085-3.28,7.127-3.28,11.385  c0,4.255,1.165,8.296,3.28,11.381C57.303,40.065,60.648,42.015,64.152,42.015z M22.927,44.487c-0.96-3.357-2.861-6.266-5.349-8.188  c-2.74-2.111-6.001-2.841-8.955-2.001c-2.954,0.842-5.339,3.181-6.551,6.419c-1.1,2.951-1.183,6.423-0.224,9.78  c0.95,3.356,2.851,6.264,5.349,8.186c1.994,1.537,4.259,2.342,6.486,2.342c0.829,0,1.659-0.112,2.46-0.341  c2.954-0.842,5.339-3.181,6.551-6.419C23.803,51.314,23.878,47.842,22.927,44.487z M67.283,52.67  C62.176,47.302,55.691,44.348,49,44.348c-6.691,0-13.186,2.954-18.273,8.321c-4.864,5.119-8.256,12.221-9.561,20.003  c-0.829,4.964,0.68,9.741,4.156,13.106c3.616,3.502,8.34,4.565,12.962,2.921c3.42-1.221,7.026-1.84,10.716-1.84  s7.296,0.619,10.716,1.84c1.426,0.507,2.861,0.758,4.268,0.758c3.159,0,6.187-1.256,8.685-3.679  c3.485-3.365,4.995-8.142,4.165-13.106C75.529,64.891,72.138,57.788,67.283,52.67z"/>
</svg>