<svg data-v-70b83f88="" version="1.0" xmlns="http://www.w3.org/2000/svg" xmlns:xlink="http://www.w3.org/1999/xlink" width="100%" height="100%" preserveAspectRatio="xMidYMid meet" color-interpolation-filters="sRGB" style="margin: auto;">
  <rect data-v-70b83f88="" x="0" y="0" width="100%" height="100%" fill="transparent" fill-opacity="1" class="background"/>
  <g data-v-70b83f88="" class="iconmbgsvg" transform="translate(20.36984252929688,20.99386596679688)">
    <g fill="#000000" hollow-target="textNormalTran">
      <g opacity="0.55" transform="translate(9.380157470703125,4.414081573486328)">
        <g>
          <rect fill="#000000" fill-opacity="0" stroke-width="2" x="0" y="0" width="012.5" height="95.18410721537836" class="image-rect"/>
          <svg filter="url(#colors1992376091)" x="0" y="0" width="112.5" height="95.18410721537836" filtersec="colorsf9202613012" class="image-svg-svg primary" style="overflow: visible;">
            <svg xmlns="http://www.w3.org/2000/svg" xmlns:xlink="http://www.w3.org/1999/xlink" version="1.1" x="0px" y="0px" viewBox="1.1835839748382568 8.543997764587402 95.63233184814453 80.91300201416016" xml:space="preserve">
              <path d="M96.151,50.497c-0.95,3.356-2.851,6.264-5.349,8.186c-1.994,1.537-4.259,2.342-6.486,2.342  c-0.839,0-1.659-0.112-2.469-0.341c-2.945-0.842-5.33-3.181-6.541-6.419c-1.109-2.951-1.183-6.423-0.233-9.78  c0.96-3.356,2.861-6.264,5.349-8.186c2.74-2.111,6.001-2.841,8.955-2.001c2.945,0.842,5.339,3.181,6.551,6.419  C97.027,43.668,97.111,47.14,96.151,50.497z M33.848,42.015c3.504,0,6.849-1.95,9.179-5.353c2.115-3.085,3.28-7.127,3.28-11.381  c0-4.259-1.165-8.3-3.28-11.385c-2.33-3.402-5.675-5.352-9.179-5.352c-3.513,0-6.858,1.95-9.188,5.352  c-2.106,3.085-3.271,7.127-3.271,11.385c0,4.255,1.165,8.296,3.271,11.381C26.99,40.065,30.335,42.015,33.848,42.015z   M64.152,42.015c3.513,0,6.858-1.95,9.188-5.353c2.106-3.085,3.271-7.127,3.271-11.381c0-4.259-1.165-8.3-3.271-11.385  c-2.33-3.402-5.675-5.352-9.188-5.352c-3.504,0-6.849,1.95-9.179,5.352c-2.115,3.085-3.28,7.127-3.28,11.385  c0,4.255,1.165,8.296,3.28,11.381C57.303,40.065,60.648,42.015,64.152,42.015z M22.927,44.487c-0.96-3.357-2.861-6.266-5.349-8.188  c-2.74-2.111-6.001-2.841-8.955-2.001c-2.954,0.842-5.339,3.181-6.551,6.419c-1.1,2.951-1.183,6.423-0.224,9.78  c0.95,3.356,2.851,6.264,5.349,8.186c1.994,1.537,4.259,2.342,6.486,2.342c0.829,0,1.659-0.112,2.46-0.341  c2.954-0.842,5.339-3.181,6.551-6.419C23.803,51.314,23.878,47.842,22.927,44.487z M67.283,52.67  C62.176,47.302,55.691,44.348,49,44.348c-6.691,0-13.186,2.954-18.273,8.321c-4.864,5.119-8.256,12.221-9.561,20.003  c-0.829,4.964,0.68,9.741,4.156,13.106c3.616,3.502,8.34,4.565,12.962,2.921c3.42-1.221,7.026-1.84,10.716-1.84  s7.296,0.619,10.716,1.84c1.426,0.507,2.861,0.758,4.268,0.758c3.159,0,6.187-1.256,8.685-3.679  c3.485-3.365,4.995-8.142,4.165-13.106C75.529,64.891,72.138,57.788,67.283,52.67z"/>
            </svg>
          </svg>
          <defs>
            <filter id="colors1992376091">
              <feColorMatrix type="matrix" values="0 0 0 0 0.3125  0 0 0 0 0.3125  0 0 0 0 0.3125  0 0 0 1 0" class="icon-fecolormatrix"/>
            </filter>
            <filter id="colorsf9202613012">
              <feColorMatrix type="matrix" values="0 0 0 0 0.99609375  0 0 0 0 0.99609375  0 0 0 0 0.99609375  0 0 0 1 0" class="icon-fecolormatrix"/>
            </filter>
            <filter id="colorsb8151116409">
              <feColorMatrix type="matrix" values="0 0 0 0 0  0 0 0 0 0  0 0 0 0 0  0 0 0 1 0" class="icon-fecolormatrix"/>
            </filter>
          </defs>
        </g>
      </g>
      <g transform="translate(0,0)">
        <g data-gra="path-name" fill-rule="" class="tp-name">
          <g transform="scale(1)">
            <g>
              <path d="M19.08-5.82L19.27-5.82C28.59-5.82 38.16-11.07 38.16-21.71 38.16-28.65 35.91-32.97 32.22-35.53 28.4-40.98 21.15-42.35 12.95-42.35 8.63-42.35 4.32-41.98 0-41.92L-0.63-41.92-0.63-34.03 2.5-34.35 2.5-30.9 2.69-30.9 3.82 3.63 6.82 3.07 6.94 6.76 19.21 4.32ZM15.45 0.69L4.44 2.88 3.19-35.03 0-34.72 0-41.29C3.94-41.35 8.51-41.73 12.95-41.73 23.96-41.73 34.41-39.48 34.41-24.84 34.41-15.01 25.71-9.57 16.14-9.57L15.33-9.57ZM23.71-25.02C23.71-29.34 22.33-35.41 16.14-35.41L15.08-35.35 15.2-15.33C19.64-15.64 23.71-18.27 23.71-24.9ZM18.83-31.66C19.89-31.66 20.9-31.59 21.9-31.15 22.77-29.4 23.08-27.21 23.08-25.02 23.08-21.21 21.71-18.33 18.96-16.95ZM59.49 5.44L71.76 4.32 71.82 3.82C72.26-1.88 72.76-7.44 72.76-13.14 72.76-20.08 72.26-33.03 65.13-37.72 63.06-40.73 60.12-42.67 55.74-42.67 39.48-42.67 36.91-14.14 36.91-3.25 36.91-1.75 36.97-0.25 37.04 1.25L37.04 1.81 40.04 1.75C40.1 2.63 40.1 3.5 40.16 4.38L40.23 4.94 52.74 4.75 52.61 4C52.43 3.32 52.36 2.56 52.36 1.81 52.3 1.06 52.3 0.31 52.3-0.44L52.3-1.63 57.18-1.81C56.99-0.75 56.8 0.38 56.55 1.5L56.37 2.31 60.18 2C60.06 2.88 59.87 3.75 59.68 4.63ZM57.18 1.63C57.56 0 57.93-2.69 58.18-5.76L48.55-5.38 48.55-3.57C48.55-1.63 48.61 0 48.86 1L37.66 1.19C37.6-0.13 37.54-1.63 37.54-3.25 37.54-17.2 41.23-40.54 54.05-41.92L55.74-42.04C66.69-42.04 69-28.9 69-16.27 69-9.95 68.38-3.75 68.07 0.63ZM58.56-14.76C58.56-22.15 57.62-28.9 54.93-28.9L54.74-28.9C53.43-28.72 50.42-25.71 49.23-14.58L49.11-13.51 58.56-13.39ZM57.05-24.59C57.24-24.02 57.37-23.33 57.49-22.65 57.93-19.46 57.93-16.02 57.93-14.76L57.93-14.01 53.36-14.08C53.93-17.83 54.99-22.52 57.05-24.59ZM102.1-0.5C102.47-0.13 102.91 0.19 103.29 0.5 105.23 3.19 107.98 5.19 111.73 5.19 129 5.19 130.63-21.96 130.63-33.41 130.63-34.72 130.56-36.03 130.56-37.35L130.56-38.04 127.5-37.79C127.5-38.72 127.44-39.6 127.44-40.48L127.44-41.16 111.04-40.04 111.23-39.29C111.54-38.35 111.67-36.66 111.67-34.91 111.73-33.09 111.73-31.34 111.73-30.22 111.73-26.71 111.48-13.89 108.98-11.76 108.6-13.33 108.35-15.2 108.17-17.14 107.73-22.15 107.79-27.53 107.67-29.15L107.6-29.59 104.6-30.28C104.6-31.15 104.6-31.84 104.54-32.28L104.48-32.72 94.15-34.97 94.09-34.28C94.03-33.41 93.97-32.47 93.97-31.59 94.03-28.9 94.09-26.21 93.97-23.52 93.78-19.39 93.15-15.26 91.53-11.39 90.02-19.27 89.84-27.46 89.84-35.47 89.84-36.03 89.9-36.6 90.02-37.1L90.21-37.85 86.71-37.85C86.71-38.66 86.71-39.48 86.9-40.23L87.08-40.98 73.13-41.1 73.07-40.54C72.82-38.41 72.76-36.22 72.76-34.1 72.76-26.03 74.2-6.51 83.14-0.06 85.58 3.13 88.71 5.19 92.84 5.19 97.03 5.19 100.03 2.75 102.1-0.5ZM94.59-31.59C94.59-32.66 94.65-33.59 94.72-34.22L103.91-32.22C104.29-28.03 103.66-10.7 107.92-10.7 108.29-10.7 108.73-10.89 109.17-11.14 111.67-12.7 112.36-22.58 112.36-30.22 112.36-34.85 112.11-38.66 111.86-39.48L126.81-40.48 126.87-36.54C126.87-19.52 123.31 1.44 108.73 1.44L108.6 1.44C104.16 1.38 101.22-1.38 99.28-5.44 97.22-1.38 94.15 1.38 89.77 1.44L89.71 1.44C76.57 1.44 73.38-21.02 73.38-34.1 73.38-36.66 73.51-38.85 73.7-40.48L86.27-40.35C86.15-39.98 86.08-38.72 86.08-36.91 86.08-32.09 87.02-8.76 90.15-8.76 91.28-8.76 92.53-11.51 93.53-15.51 94.53-19.27 94.65-23.65 94.65-27.34Z" transform="translate(0.6299999952316284, 42.66999816894531)"/>
            </g>
            <g data-gra="path-name-1" fill="#000000" transform="translate(0,52.43000030517578)">
              <g transform="scale(0.99985)">
                <path d="M19.67-6L19.86-6C29.47-6 39.34-11.41 39.34-22.38 39.34-29.53 37.01-33.98 33.21-36.63 29.28-42.24 21.8-43.66 13.35-43.66 8.9-43.66 4.45-43.27 0-43.2L-0.64-43.2-0.64-35.08 2.58-35.4 2.58-31.86 2.77-31.86 3.93 3.74 7.03 3.16 7.16 6.96 19.8 4.45ZM15.93 0.71L4.58 2.97 3.29-36.11 0-35.79 0-42.56C4.06-42.62 8.77-43.01 13.35-43.01 24.7-43.01 35.47-40.69 35.47-25.6 35.47-15.48 26.5-9.87 16.64-9.87L15.8-9.87ZM24.44-25.79C24.44-30.24 23.02-36.5 16.64-36.5L15.54-36.43 15.67-15.8C20.25-16.12 24.44-18.83 24.44-25.66ZM19.41-32.63C20.51-32.63 21.54-32.56 22.57-32.11 23.47-30.31 23.79-28.05 23.79-25.79 23.79-21.86 22.38-18.89 19.54-17.48ZM63.32-23.67L63.39-27.15 56.1-26.63 56.36-31.15 69.19-30.5 69.51-40.75 66.23-40.56 66.29-43.98 38.05-42.5 38.5 1.81 41.72 1.74 41.72 5.03 68.61 4.32 68.93-5.93 65.64-5.67 65.71-9.16 55.07-8.38 55.39-14.19 66.29-13.67 66.61-23.92ZM62.42-17.54L51.59-18.06 50.94-7.48 65.06-8.45 64.74 0.45 39.14 1.16 38.69-41.85 65.64-43.27 65.32-34.37 52.55-35.01 51.97-25.66 62.74-26.44ZM98.73-41.53L68.22-43.14 68.29-32.11 71.51-32.24 71.51-28.89 76.41-29.08 77.7 3.29 80.73 2.71 80.93 6.51 92.99 4.13 93.95-29.73 101.76-30.05 101.95-38.3 98.66-38.43ZM97.89-33.92L90.08-33.6 89.12 0.39 78.28 2.51 76.93-33.08 68.93-32.76 68.87-42.43 98.08-40.88ZM115.3-31.15C115.3-29.86 114.78-28.63 114.07-27.47L113.49-26.57 118.2-26.18C118.01-25.54 117.68-24.89 117.3-24.25L116.72-23.34 128.9-22.38 129.16-22.7C130.13-24.31 130.64-26.18 130.64-28.05 130.64-32.11 128.26-36.3 124.91-38.56 122.07-42.5 117.94-44.3 113.11-44.3 110.33-44.3 107.37-43.66 104.79-42.62 99.95-40.69 96.15-35.53 96.15-30.18 96.15-25.21 98.66-22.12 101.76-19.73 103.3-17.67 105.43-16.06 107.5-14.64 108.53-13.99 109.56-13.35 110.53-12.7 110.98-12.32 111.49-11.99 111.94-11.67 112.46-10.83 112.98-9.61 112.98-8.64 112.98-7.48 112.14-6.25 111.11-5.8 110.85-7.22 110.85-8.71 110.85-9.61L110.85-10.38 107.75-9.87C107.62-11.03 107.62-12.12 107.62-12.83L107.62-13.61 96.98-11.93 96.86-11.48C96.66-10.51 96.6-9.48 96.6-8.51 96.6-4 98.66-0.71 101.69 1.42 104.34 5.35 109.3 7.29 114.39 7.29 121.55 7.29 130.13 2.77 130.13-5.61 130.13-10.58 127.36-14.19 124-16.89 122.13-19.35 119.49-21.22 116.97-22.83 114.85-24.18 112.72-25.41 110.98-26.5 110.91-26.63 110.91-26.83 110.91-26.95 110.91-29.21 112.91-31.15 115.17-31.15ZM114.59-27.15C115.56-28.7 115.94-30.05 115.94-31.21 115.94-33.66 114.01-35.01 111.94-35.01 109.82-35.01 107.5-33.6 107.04-30.5L107.04-30.18C107.04-25.28 123.62-21.8 125.87-11.87 126.13-10.83 126.26-9.8 126.26-8.83 126.26-1.48 119.04 3.22 111.49 3.42L111.17 3.42C103.43 3.42 97.24-0.97 97.24-8.51 97.24-9.41 97.31-10.38 97.5-11.35L106.98-12.83 106.98-11.99C106.98-6.77 108.66-4.97 110.33-4.97 111.94-4.97 113.62-6.71 113.62-8.64L113.56-9.29C112.2-17.28 98.4-17.93 96.86-28.76 96.79-29.21 96.79-29.73 96.79-30.18 96.79-35.27 100.47-40.24 105.04-42.04 107.69-43.08 110.46-43.66 113.11-43.66 116.46-43.66 119.55-42.75 121.94-40.82 124.91-38.37 126.78-34.82 126.78-31.27 126.78-29.6 126.32-27.86 125.36-26.25Z" transform="translate(0.64000004529953, 44.29999923706055)"/>
              </g>
            </g>
          </g>
        </g>
      </g>
    </g>
  </g>
  <defs v-gra="od"/>
</svg>
